<?xml version="1.0" encoding="UTF-8" standalone="no"?>
<!-- Uploaded to: SVG Repo, www.svgrepo.com, Generator: SVG Repo Mixer Tools -->
<svg width="20" height="20" viewBox="0 0 20 20" fill="none" xmlns="http://www.w3.org/2000/svg">
  <path fill-rule="evenodd" clip-rule="evenodd" d="M10 0C4.477 0 0 4.477 0 10C0 14.427 2.865 18.167 6.839 19.499C7.339 19.592 7.521 19.275 7.521 19C7.521 18.719 7.512 18.037 7.512 17.187C5 17.68 4.35 16.619 4.15 16.057C4.037 15.763 3.55 14.875 3.125 14.594C2.775 14.369 2.275 13.875 3.116 13.866C3.9 13.856 4.463 14.594 4.65 14.897C5.55 16.406 6.988 16.097 7.56 15.822C7.65 15.175 7.912 14.741 8.2 14.494C5.975 14.247 3.65 13.381 3.65 9.537C3.65 8.437 4.037 7.519 4.675 6.787C4.575 6.531 4.225 5.509 4.775 4.134C4.775 4.134 5.612 3.869 7.521 5.159C8.312 4.934 9.162 4.822 10.012 4.822C10.862 4.822 11.712 4.934 12.503 5.159C14.412 3.859 15.249 4.134 15.249 4.134C15.799 5.509 15.449 6.531 15.349 6.787C15.987 7.519 16.374 8.428 16.374 9.537C16.374 13.391 14.04 14.247 11.815 14.494C12.175 14.806 12.487 15.412 12.487 16.356C12.487 17.706 12.478 18.619 12.478 19C12.478 19.275 12.66 19.601 13.16 19.499C15.1446 18.8283 16.8912 17.5777 18.1654 15.893C19.4396 14.2083 20.0012 12.1864 20 10C20 4.477 15.522 0 10 0Z" fill="currentColor"/>
</svg>